<mxfile host="Electron" agent="Mozilla/5.0 (Windows NT 10.0; Win64; x64) AppleWebKit/537.36 (KHTML, like Gecko) draw.io/24.7.17 Chrome/128.0.6613.36 Electron/32.0.1 Safari/537.36" version="24.7.17">
  <diagram name="Page-1" id="dUEeAkdOdskUARuqkpku">
    <mxGraphModel dx="3774" dy="2297" grid="1" gridSize="10" guides="1" tooltips="1" connect="1" arrows="1" fold="1" page="1" pageScale="1" pageWidth="850" pageHeight="1100" math="0" shadow="0">
      <root>
        <mxCell id="0" />
        <mxCell id="1" parent="0" />
        <mxCell id="53fV7awexfVIfZhia3ub-1" value="ShoppingCart" style="rounded=1;arcSize=10;whiteSpace=wrap;html=1;align=center;container=1;" vertex="1" collapsed="1" parent="1">
          <mxGeometry x="-1480" y="-725" width="110" height="30" as="geometry">
            <mxRectangle x="-1637.5" y="-380" width="202.5" height="130" as="alternateBounds" />
          </mxGeometry>
        </mxCell>
        <mxCell id="53fV7awexfVIfZhia3ub-2" value="" style="shape=table;startSize=0;container=1;collapsible=1;childLayout=tableLayout;fixedRows=1;rowLines=0;fontStyle=0;align=center;resizeLast=1;strokeColor=none;fillColor=none;collapsible=0;" vertex="1" parent="53fV7awexfVIfZhia3ub-1">
          <mxGeometry x="22.5" y="20" width="180" height="30" as="geometry" />
        </mxCell>
        <mxCell id="53fV7awexfVIfZhia3ub-3" value="" style="shape=tableRow;horizontal=0;startSize=0;swimlaneHead=0;swimlaneBody=0;fillColor=none;collapsible=0;dropTarget=0;points=[[0,0.5],[1,0.5]];portConstraint=eastwest;top=0;left=0;right=0;bottom=0;" vertex="1" parent="53fV7awexfVIfZhia3ub-2">
          <mxGeometry width="180" height="30" as="geometry" />
        </mxCell>
        <mxCell id="53fV7awexfVIfZhia3ub-4" value="FK" style="shape=partialRectangle;connectable=0;fillColor=none;top=0;left=0;bottom=0;right=0;fontStyle=0;overflow=hidden;whiteSpace=wrap;html=1;" vertex="1" parent="53fV7awexfVIfZhia3ub-3">
          <mxGeometry width="30" height="30" as="geometry">
            <mxRectangle width="30" height="30" as="alternateBounds" />
          </mxGeometry>
        </mxCell>
        <mxCell id="53fV7awexfVIfZhia3ub-5" value="UserId" style="shape=partialRectangle;connectable=0;fillColor=none;top=0;left=0;bottom=0;right=0;align=left;spacingLeft=6;fontStyle=0;overflow=hidden;whiteSpace=wrap;html=1;" vertex="1" parent="53fV7awexfVIfZhia3ub-3">
          <mxGeometry x="30" width="150" height="30" as="geometry">
            <mxRectangle width="150" height="30" as="alternateBounds" />
          </mxGeometry>
        </mxCell>
        <mxCell id="53fV7awexfVIfZhia3ub-6" value="ShoppingCartItem" style="shape=ext;margin=3;double=1;whiteSpace=wrap;html=1;align=center;container=1;" vertex="1" collapsed="1" parent="1">
          <mxGeometry x="-1210" y="-725" width="140" height="30" as="geometry">
            <mxRectangle x="-1370" y="-380" width="270" height="140" as="alternateBounds" />
          </mxGeometry>
        </mxCell>
        <mxCell id="53fV7awexfVIfZhia3ub-7" value="" style="shape=table;startSize=0;container=1;collapsible=1;childLayout=tableLayout;fixedRows=1;rowLines=0;fontStyle=0;align=center;resizeLast=1;strokeColor=none;fillColor=none;collapsible=0;" vertex="1" parent="53fV7awexfVIfZhia3ub-6">
          <mxGeometry x="45" y="20" width="180" height="30" as="geometry" />
        </mxCell>
        <mxCell id="53fV7awexfVIfZhia3ub-8" value="" style="shape=tableRow;horizontal=0;startSize=0;swimlaneHead=0;swimlaneBody=0;fillColor=none;collapsible=0;dropTarget=0;points=[[0,0.5],[1,0.5]];portConstraint=eastwest;top=0;left=0;right=0;bottom=0;" vertex="1" parent="53fV7awexfVIfZhia3ub-7">
          <mxGeometry width="180" height="30" as="geometry" />
        </mxCell>
        <mxCell id="53fV7awexfVIfZhia3ub-9" value="WK" style="shape=partialRectangle;connectable=0;fillColor=none;top=0;left=0;bottom=0;right=0;fontStyle=0;overflow=hidden;whiteSpace=wrap;html=1;" vertex="1" parent="53fV7awexfVIfZhia3ub-8">
          <mxGeometry width="30" height="30" as="geometry">
            <mxRectangle width="30" height="30" as="alternateBounds" />
          </mxGeometry>
        </mxCell>
        <mxCell id="53fV7awexfVIfZhia3ub-10" value="CourseId" style="shape=partialRectangle;connectable=0;fillColor=none;top=0;left=0;bottom=0;right=0;align=left;spacingLeft=6;fontStyle=0;overflow=hidden;whiteSpace=wrap;html=1;" vertex="1" parent="53fV7awexfVIfZhia3ub-8">
          <mxGeometry x="30" width="150" height="30" as="geometry">
            <mxRectangle width="150" height="30" as="alternateBounds" />
          </mxGeometry>
        </mxCell>
        <mxCell id="53fV7awexfVIfZhia3ub-11" value="Have" style="shape=rhombus;perimeter=rhombusPerimeter;whiteSpace=wrap;html=1;align=center;" vertex="1" parent="1">
          <mxGeometry x="-1330" y="-740" width="70" height="60" as="geometry" />
        </mxCell>
        <mxCell id="53fV7awexfVIfZhia3ub-12" value="" style="endArrow=none;html=1;rounded=0;" edge="1" parent="1" source="53fV7awexfVIfZhia3ub-6" target="53fV7awexfVIfZhia3ub-11">
          <mxGeometry relative="1" as="geometry">
            <mxPoint x="-1432.92" y="-610" as="sourcePoint" />
            <mxPoint x="-1272.92" y="-610" as="targetPoint" />
          </mxGeometry>
        </mxCell>
        <mxCell id="53fV7awexfVIfZhia3ub-13" value="N" style="resizable=0;html=1;whiteSpace=wrap;align=right;verticalAlign=bottom;" connectable="0" vertex="1" parent="53fV7awexfVIfZhia3ub-12">
          <mxGeometry x="1" relative="1" as="geometry">
            <mxPoint x="13" y="2" as="offset" />
          </mxGeometry>
        </mxCell>
        <mxCell id="53fV7awexfVIfZhia3ub-14" value="" style="endArrow=none;html=1;rounded=0;" edge="1" parent="1" source="53fV7awexfVIfZhia3ub-1" target="53fV7awexfVIfZhia3ub-11">
          <mxGeometry relative="1" as="geometry">
            <mxPoint x="-1355.0033333333336" y="-730" as="sourcePoint" />
            <mxPoint x="-1252.92" y="-670" as="targetPoint" />
          </mxGeometry>
        </mxCell>
        <mxCell id="53fV7awexfVIfZhia3ub-15" value="1" style="resizable=0;html=1;whiteSpace=wrap;align=right;verticalAlign=bottom;" connectable="0" vertex="1" parent="53fV7awexfVIfZhia3ub-14">
          <mxGeometry x="1" relative="1" as="geometry" />
        </mxCell>
      </root>
    </mxGraphModel>
  </diagram>
</mxfile>
